PathFileType	4	(X/Y/Z)	E:\Qualisys_Data\Carbon_Farble_Plate\Data\Amateur_Runner\S1\T3\S1T3V23_c3d.trc
DataRate	CameraRate	NumFrames	NumMarkers	Units	OrigDataRate	OrigDataStartFrame	OrigNumFrames
200.000000	200.000000	4	39	mm	200.000000	111	296
Frame#	Time	LSHO			RSHO			LICST			RICST			LASIS			LHEEL			RASIS			LTROC			RTROC			SACR			LTH1			LSK4			LTH2			LTH3			RHM5			LSK2			LTH4			RTH1			LTOE			RTH2			RTH3			RTH4			LLEP			RLEP			LSK1			LSK3			RSK1			LHM5			RSK2			LFT1			RSK3			RSK4			LLME			RLME			RTOE			RHEEL			RFT1			RFT2			LFT2			
		X1	Y1	Z1	X2	Y2	Z2	X3	Y3	Z3	X4	Y4	Z4	X5	Y5	Z5	X6	Y6	Z6	X7	Y7	Z7	X8	Y8	Z8	X9	Y9	Z9	X10	Y10	Z10	X11	Y11	Z11	X12	Y12	Z12	X13	Y13	Z13	X14	Y14	Z14	X15	Y15	Z15	X16	Y16	Z16	X17	Y17	Z17	X18	Y18	Z18	X19	Y19	Z19	X20	Y20	Z20	X21	Y21	Z21	X22	Y22	Z22	X23	Y23	Z23	X24	Y24	Z24	X25	Y25	Z25	X26	Y26	Z26	X27	Y27	Z27	X28	Y28	Z28	X29	Y29	Z29	X30	Y30	Z30	X31	Y31	Z31	X32	Y32	Z32	X33	Y33	Z33	X34	Y34	Z34	X35	Y35	Z35	X36	Y36	Z36	X37	Y37	Z37	X38	Y38	Z38	X39	Y39	Z39	

112	0.555	-690.8319091796875	1482.734985351562	-559.7687377929688	-746.1687622070312	1495.093017578125	-232.5249176025391	-756.6701049804688	1019.874389648438	-522.8515014648438	-765.2857666015625	1049.930419921875	-222.7077026367188	-714.5084838867188	981.8275756835938	-492.58984375	-1133.9873046875	145.6604766845703	-384.3042602539062	-723.9515991210938	1004.568115234375	-227.2469482421875	-830.3963623046875	900.5255737304688	-533.8840942382812	-819.2777709960938	910.3057250976562	-193.8193511962891	-878.559814453125	1049.985473632812	-372.4067077636719	-716.0201416015625	738.9154052734375	-496.7779541015625	-1027.837036132812	284.5694580078125	-420.667724609375	-796.6163330078125	737.841552734375	-526.9928588867188	-726.7911987304688	636.9556274414062	-475.170654296875	-758.7412109375	224.2574157714844	-188.6126861572266	-964.40673828125	355.3234252929688	-462.5570983886719	-809.5771484375	642.1636962890625	-498.1700744628906	-641.0726928710938	865.4940185546875	-209.3442230224609	-900.7347412109376	61.67891311645508	-373.28515625	-697.7236328125	814.3976440429688	-182.8363800048828	-572.91845703125	789.7472534179688	-206.5062866210938	-633.6267700195312	737.586181640625	-190.2628479003906	-799.0595092773438	492.0745849609375	-451.3056030273438	-518.80615234375	617.5755615234375	-219.1690979003906	-901.2615356445312	304.745849609375	-441.77978515625	-969.3292846679688	230.1754760742188	-433.3327941894531	-637.554931640625	481.1646118164062	-208.27783203125	-968.4569702148438	64.36812591552734	-441.0959167480469	-693.9158325195312	539.87744140625	-226.4450988769531	-1135.960327148438	114.9443740844727	-355.0355834960938	-707.0467529296875	409.3214721679688	-220.2255554199219	-760.1669921875	466.0654907226562	-247.4918212890625	-1064.3212890625	158.2451171875	-427.5908203125	-824.3782958984375	347.3594055175781	-224.3428039550781	-703.1669921875	191.4248504638672	-251.7749481201172	-899.9815673828125	346.8946838378906	-277.5293273925781	-904.6683959960938	315.6131896972656	-303.1775207519531	-914.2025146484376	329.6103515625	-254.1066589355469	-1138.78173828125	113.5464096069336	-406.5827331542969
113	0.56	-668.1580810546875	1486.602905273438	-557.8711547851562	-727.500732421875	1498.55517578125	-231.8881072998047	-734.0774536132812	1021.7197265625	-523.2403564453125	-742.9595947265625	1053.8935546875	-223.2673797607422	-692.2183837890625	983.766845703125	-492.2803955078125	-1129.278686523438	152.552734375	-383.6683654785156	-702.1934814453125	1008.485473632812	-227.4055328369141	-808.7293090820312	903.6373291015624	-533.6438598632812	-796.2833862304688	914.6223754882812	-192.5600891113281	-856.3910522460938	1053.246826171875	-372.9703979492188	-697.9048461914062	740.09814453125	-492.7416381835938	-1019.52880859375	291.4557189941406	-419.9004516601562	-777.091552734375	741.1546020507812	-526.53662109375	-710.343505859375	638.7431030273438	-472.2569580078125	-714.4754028320312	217.3394317626953	-188.2043762207031	-955.4261474609376	361.5036315917969	-461.7327270507812	-792.65478515625	645.1244506835938	-497.5188903808594	-618.3116455078125	871.0751342773438	-209.504150390625	-899.3734130859375	61.4272575378418	-373.2983703613281	-674.7110595703125	819.6994018554688	-183.3595581054688	-549.847412109375	795.6849365234375	-207.6595153808594	-610.1907348632812	743.166015625	-191.0122985839844	-787.0562133789062	495.651123046875	-450.8794860839844	-495.094482421875	623.662353515625	-219.5582580566406	-892.9906616210938	309.5174865722656	-441.9466552734375	-962.1483764648438	235.9813995361328	-432.9624633789062	-606.9315795898438	480.966064453125	-208.0267639160156	-966.7000122070312	65.7411117553711	-440.7246398925781	-665.278564453125	535.7906494140625	-224.7487487792969	-1131.848022460938	122.0058135986328	-354.6142272949219	-672.6187133789062	405.6651306152344	-219.3214263916016	-728.9413452148438	459.5937194824219	-245.8883056640625	-1057.882568359375	164.3040618896484	-427.0541076660156	-786.611328125	337.1715393066406	-222.8698577880859	-657.1141967773438	188.2322387695312	-252.6269378662109	-861.9562377929688	332.6212158203125	-275.7233276367188	-865.8187866210938	301.4184265136719	-301.8468627929688	-875.8394165039062	314.00390625	-252.3423004150391	-1134.997314453125	120.5673904418945	-406.29931640625
114	0.565	-645.2545776367188	1491.120849609375	-555.8207397460938	-708.4244995117188	1501.996948242188	-230.7811737060547	-711.908447265625	1024.133422851562	-522.5814208984375	-720.671875	1058.40087890625	-223.4506988525391	-669.8335571289062	986.0559692382812	-492.6999206542969	-1123.946899414062	159.4634857177734	-383.1488647460938	-679.8960571289062	1012.533264160156	-228.0772094726562	-787.4049072265625	906.2450561523438	-533.13671875	-773.2523803710938	919.2396850585938	-191.2156372070312	-834.6014404296875	1056.885986328125	-373.26171875	-679.1918334960938	741.6448364257812	-490.3114318847656	-1010.572021484375	298.5435180664062	-419.2349243164062	-757.71044921875	743.5355834960938	-525.4290161132812	-693.1337890625	641.0679321289062	-469.4822692871094	-668.9622192382812	210.4454193115234	-188.0587615966797	-945.9225463867188	368.1681518554688	-461.0055236816406	-775.5927124023438	648.288330078125	-496.3590393066406	-595.1825561523438	876.5906372070312	-210.3813934326172	-897.43603515625	61.78128814697266	-373.17431640625	-651.5426025390625	825.4931640625	-182.9381866455078	-526.6049194335938	801.1671752929688	-208.5387878417969	-586.7859497070312	748.5592041015625	-191.5196838378906	-775.0842895507812	499.1403503417969	-450.1886901855469	-471.910400390625	629.275634765625	-220.3433990478516	-884.2582397460938	314.9130554199219	-442.4316101074219	-954.4319458007812	242.6382904052734	-434.3509216308594	-576.5411987304688	480.3583984375	-206.9558258056641	-964.1769409179688	67.15452575683594	-440.6422729492188	-638.4797973632812	532.63671875	-222.8464508056641	-1127.7861328125	129.1481170654297	-354.1373596191406	-638.5511474609375	401.8630676269531	-218.7191467285156	-697.9231567382812	452.771728515625	-244.5252227783203	-1051.379638671875	171.97314453125	-427.2077941894531	-748.4314575195312	326.8172607421875	-221.0697631835938	-611.463134765625	185.0764465332031	-252.6533203125	-824.5245971679688	318.7003784179688	-272.2188110351562	-827.542236328125	286.6495666503906	-298.5897827148438	-836.2359008789062	299.4462585449219	-250.3701171875	-1130.724365234375	127.4257965087891	-405.6150817871094
115	0.57	-622.3246459960938	1495.497924804688	-553.9645385742188	-689.244140625	1505.592407226562	-230.2201385498047	-689.72607421875	1026.314208984375	-522.2138671875	-698.2222900390625	1062.289184570312	-223.7032165527344	-647.4963989257812	988.3927001953124	-492.4511108398438	-1117.416870117188	167.6059265136719	-382.88818359375	-657.5960693359375	1016.955749511719	-228.4033050537109	-765.8032836914062	909.4990234375	-532.346435546875	-750.0756225585938	923.752197265625	-190.3587341308594	-811.907958984375	1060.38330078125	-373.0946350097656	-660.8106689453125	743.769287109375	-488.2595520019531	-1000.948852539062	305.9574584960938	-418.5381469726562	-738.8043823242188	746.7178344726562	-524.5051879882812	-676.94775390625	643.2994384765625	-466.7094116210938	-624.0477294921875	204.823974609375	-187.5654296875	-935.9781494140624	375.2947082519531	-460.6804809570312	-758.352783203125	651.7144165039062	-495.5414123535156	-572.0042724609375	881.7265625	-211.2708740234375	-896.041015625	61.43461608886719	-373.1650695800781	-628.2119750976562	830.6378784179688	-183.4396209716797	-503.4417724609375	806.1289672851562	-209.9359130859375	-563.5678100585938	753.8150024414062	-192.0594329833984	-762.3007202148438	503.2898254394531	-449.9861145019531	-449.0530700683594	634.1928100585938	-220.9549255371094	-874.4280395507812	320.7913208007812	-442.6935424804688	-945.7481689453124	249.1331939697266	-434.4989013671875	-546.8973999023438	479.76220703125	-206.7513732910156	-963.8648071289062	68.14418029785156	-440.1175842285156	-610.3037109375	528.1592407226562	-223.1328582763672	-1122.408935546875	137.071044921875	-353.8544616699219	-604.6659545898438	398.0080261230469	-218.0398101806641	-666.126953125	445.7238464355469	-243.5939483642578	-1043.991821289062	178.8520050048828	-426.9140014648438	-711.20556640625	317.5152893066406	-218.8164672851562	-565.76220703125	182.8595733642578	-253.1440277099609	-785.49365234375	304.3601379394531	-271.4338684082031	-787.5144653320312	273.1384887695312	-297.4940795898438	-797.5143432617188	285.5560302734375	-247.2147216796875	-1125.473876953125	135.2733154296875	-404.9115600585938
